<svg width="26" height="25" viewBox="0 0 26 25" fill="none" xmlns="http://www.w3.org/2000/svg">
<path d="M13 1.5625C6.95996 1.5625 2.0625 6.45996 2.0625 12.5C2.0625 18.54 6.95996 23.4375 13 23.4375C19.04 23.4375 23.9375 18.54 23.9375 12.5C23.9375 6.45996 19.04 1.5625 13 1.5625ZM13.9863 17.5146C13.9619 18.3838 13.3174 18.9209 12.4824 18.8965C11.6816 18.8721 11.0518 18.3008 11.0762 17.4268C11.1006 16.5576 11.7646 16.0059 12.5654 16.0303C13.4053 16.0547 14.0156 16.6455 13.9863 17.5146ZM16.3643 11.2988C16.1592 11.5869 15.7002 11.958 15.124 12.4072L14.4844 12.8467C14.1719 13.0859 13.9766 13.3691 13.874 13.6914C13.8203 13.8623 13.7812 14.3066 13.7715 14.6045C13.7666 14.6631 13.7324 14.7949 13.5518 14.7949H11.6426C11.4424 14.7949 11.418 14.6777 11.4229 14.6191C11.4521 13.8086 11.5693 13.1396 11.9062 12.6025C12.3604 11.8799 13.6396 11.1182 13.6396 11.1182C13.835 10.9717 13.9863 10.8154 14.1035 10.6445C14.3184 10.3516 14.4941 10.0244 14.4941 9.67285C14.4941 9.26758 14.3965 8.88184 14.1377 8.55957C13.835 8.18359 13.5078 8.00293 12.8779 8.00293C12.2578 8.00293 11.8965 8.31543 11.6377 8.72559C11.3789 9.13574 11.4229 9.61914 11.4229 10.0586H9.04492C9.04492 8.39844 9.47949 7.33887 10.3975 6.71387C11.0176 6.28906 11.8086 6.10352 12.7314 6.10352C13.9424 6.10352 14.9043 6.32812 15.7539 6.97266C16.54 7.56836 16.9551 8.4082 16.9551 9.54102C16.9551 10.2393 16.7109 10.8252 16.3643 11.2988Z" fill="white"/>
</svg>
