<svg width="27" height="18" viewBox="0 0 27 18" fill="none" xmlns="http://www.w3.org/2000/svg">
<path d="M24.0921 3.17696C20.5397 -2.71334 15.1876 1.39175 15.1876 1.39175C14.8398 1.65681 14.6491 1.8743 14.2137 1.8743H12.782C12.3466 1.8743 12.1559 1.64775 11.8103 1.39175C11.8103 1.39175 6.4582 -2.70881 2.90583 3.18376C-0.64653 9.07633 0.785187 15.49 0.785187 15.49C1.03652 17.06 1.86234 18.1089 3.42197 17.982C4.9816 17.8551 8.35444 13.7478 8.35444 13.7478C8.69362 13.3869 9.15712 13.1711 9.64927 13.1452H17.3442C17.8388 13.1733 18.3035 13.3933 18.6413 13.7591C18.6413 13.7591 22.0074 17.8574 23.5782 17.9888C25.1491 18.1202 25.9637 17.0826 26.2128 15.4968C26.2105 15.49 27.6535 9.06727 24.0921 3.17696ZM10.7174 7.98209H8.87506V9.7741C8.58138 9.97249 8.23421 10.0745 7.88094 10.0664C7.72171 10.0743 7.56252 10.0501 7.41264 9.99528C7.26276 9.94044 7.12521 9.856 7.008 9.74692V7.98209H5.2666C5.0915 7.74551 4.99419 7.45951 4.98833 7.16424C4.96096 6.79161 5.04458 6.41922 5.22845 6.09493H7.07083V4.23495C7.35962 4.09813 7.67659 4.03289 7.99539 4.04465C8.32217 4.05542 8.64347 4.13247 8.94014 4.2712V6.09493H10.6793C10.8651 6.34947 10.9791 6.65012 11.0092 6.96488C10.9955 7.32289 10.8954 7.6721 10.7174 7.98209ZM18.271 10.021C17.9825 10.021 17.7005 9.93468 17.4606 9.77287C17.2207 9.61106 17.0338 9.38107 16.9234 9.112C16.813 8.84292 16.7841 8.54683 16.8404 8.26118C16.8967 7.97553 17.0356 7.71314 17.2396 7.5072C17.4436 7.30125 17.7035 7.161 17.9864 7.10418C18.2694 7.04736 18.5627 7.07653 18.8292 7.18798C19.0957 7.29944 19.3235 7.48818 19.4838 7.73035C19.6441 7.97251 19.7296 8.25722 19.7296 8.54847C19.7305 8.74231 19.6934 8.93442 19.6205 9.11374C19.5476 9.29306 19.4402 9.45605 19.3047 9.59333C19.1691 9.73061 19.008 9.83948 18.8306 9.91366C18.6532 9.98784 18.463 10.0259 18.271 10.0256V10.021ZM18.271 5.97032C17.9825 5.97032 17.7005 5.88396 17.4606 5.72215C17.2207 5.56034 17.0338 5.33036 16.9234 5.06128C16.813 4.7922 16.7841 4.49611 16.8404 4.21046C16.8967 3.92481 17.0356 3.66242 17.2396 3.45648C17.4436 3.25054 17.7035 3.11029 17.9864 3.05347C18.2694 2.99665 18.5627 3.02581 18.8292 3.13727C19.0957 3.24872 19.3235 3.43746 19.4838 3.67963C19.6441 3.92179 19.7296 4.2065 19.7296 4.49775C19.7302 4.6914 19.6929 4.88327 19.6199 5.06233C19.5468 5.24138 19.4394 5.40411 19.3039 5.54115C19.1683 5.67819 19.0073 5.78685 18.8301 5.86089C18.6528 5.93493 18.4628 5.97289 18.271 5.97259V5.97032ZM21.9019 8.14521C21.6134 8.14521 21.3314 8.05884 21.0915 7.89703C20.8516 7.73522 20.6647 7.50524 20.5543 7.23616C20.4439 6.96708 20.415 6.671 20.4713 6.38534C20.5276 6.09969 20.6665 5.8373 20.8705 5.63136C21.0745 5.42542 21.3344 5.28517 21.6173 5.22835C21.9003 5.17153 22.1936 5.20069 22.4601 5.31215C22.7266 5.4236 22.9544 5.61235 23.1147 5.85451C23.275 6.09667 23.3605 6.38138 23.3605 6.67263C23.3611 6.8661 23.3239 7.05778 23.251 7.23669C23.178 7.41559 23.0709 7.57822 22.9356 7.71523C22.8003 7.85224 22.6395 7.96095 22.4625 8.03512C22.2855 8.10929 22.0958 8.14747 21.9041 8.14747L21.9019 8.14521Z" fill="white"/>
</svg>
