<svg width="27" height="27" viewBox="0 0 27 27" fill="none" xmlns="http://www.w3.org/2000/svg">
<path d="M21.5324 14.5575C21.5774 14.22 21.5999 13.8713 21.5999 13.5C21.5999 13.14 21.5774 12.78 21.5211 12.4425L23.8049 10.665C24.0074 10.5075 24.0636 10.2038 23.9399 9.97876L21.7799 6.24376C21.6449 5.99626 21.3636 5.91751 21.1161 5.99626L18.4274 7.07626C17.8649 6.64876 17.2686 6.28876 16.6049 6.01876L16.1999 3.16126C16.1549 2.89126 15.9299 2.70001 15.6599 2.70001H11.3399C11.0699 2.70001 10.8561 2.89126 10.8111 3.16126L10.4061 6.01876C9.74238 6.28876 9.13488 6.66001 8.58363 7.07626L5.89488 5.99626C5.64738 5.90626 5.36613 5.99626 5.23113 6.24376L3.08238 9.97876C2.94738 10.215 2.99238 10.5075 3.21738 10.665L5.50113 12.4425C5.44488 12.78 5.39988 13.1513 5.39988 13.5C5.39988 13.8488 5.42238 14.22 5.47863 14.5575L3.19488 16.335C2.99238 16.4925 2.93613 16.7963 3.05988 17.0213L5.21988 20.7563C5.35488 21.0038 5.63613 21.0825 5.88363 21.0038L8.57238 19.9238C9.13488 20.3513 9.73113 20.7113 10.3949 20.9813L10.7999 23.8388C10.8561 24.1088 11.0699 24.3 11.3399 24.3H15.6599C15.9299 24.3 16.1549 24.1088 16.1886 23.8388L16.5936 20.9813C17.2574 20.7113 17.8649 20.3513 18.4161 19.9238L21.1049 21.0038C21.3524 21.0938 21.6336 21.0038 21.7686 20.7563L23.9286 17.0213C24.0636 16.7738 24.0074 16.4925 23.7936 16.335L21.5324 14.5575ZM13.4999 17.55C11.2724 17.55 9.44988 15.7275 9.44988 13.5C9.44988 11.2725 11.2724 9.45001 13.4999 9.45001C15.7274 9.45001 17.5499 11.2725 17.5499 13.5C17.5499 15.7275 15.7274 17.55 13.4999 17.55Z" fill="white"/>
</svg>
