<svg width="22" height="22" viewBox="0 0 22 22" fill="none" xmlns="http://www.w3.org/2000/svg">
<path d="M16.8854 17.25C15.7396 17.25 14.8125 18.1875 14.8125 19.3334C14.8125 20.4792 15.7396 21.4167 16.8854 21.4167C18.0312 21.4167 18.9688 20.4792 18.9688 19.3334C18.9688 18.1875 18.0312 17.25 16.8854 17.25ZM6.46875 17.25C5.32292 17.25 4.39583 18.1875 4.39583 19.3334C4.39583 20.4792 5.32292 21.4167 6.46875 21.4167C7.61458 21.4167 8.55208 20.4792 8.55208 19.3334C8.55208 18.1875 7.61458 17.25 6.46875 17.25ZM6.46875 14.125L7.61458 12.0417H15.375C16.1562 12.0417 16.8437 11.6146 17.1979 10.9688L21.7812 2.66671H4.60417L3.625 0.583374H0.21875V2.66671H2.30208L6.05208 10.573L2.94792 16.2084H18.9688V14.125H6.46875Z" fill="black"/>
</svg>
