<svg width="24" height="24" viewBox="0 0 24 24" fill="none" xmlns="http://www.w3.org/2000/svg">
<path d="M6.36958 9.51604V9.00244H8.74078V9.51604H9.24958V9.00244H11.424V9.51604H12.168C12.1728 8.95924 12.6864 8.51284 13.32 8.51284C13.9584 8.51284 14.472 8.95924 14.4768 9.51604H14.7072C14.88 9.25204 15.2064 9.07444 15.5808 9.07444C15.9552 9.07444 16.2816 9.25204 16.4544 9.51604H16.7808C16.8816 9.16564 17.2464 8.90644 17.6784 8.90644C18.1056 8.90644 18.4704 9.16564 18.576 9.51604H21.9168L23.52 7.76404H0.47998L2.08318 9.51604H6.36958ZM8.05635 7.96074H9.795V8.52201H8.05635V7.96074ZM0.47998 9.99604L2.38078 20.0904C2.46238 20.5272 2.84158 20.844 3.28318 20.844H3.67198L2.22718 9.99604H0.47998ZM20.328 20.844H20.7168C21.1584 20.844 21.5376 20.5272 21.6192 20.0904L23.52 9.99604H21.7728L20.328 20.844Z" fill="white"/>
<path d="M2.71289 10.0123L4.15289 20.8416H5.53241L4.09241 10.0123H2.71289Z" fill="white"/>
<path d="M19.9061 10.0123L18.4661 20.8416H19.8461L21.2861 10.0123H19.9061Z" fill="white"/>
<path d="M10.4735 6.85681C10.7088 6.62161 11.0303 6.47761 11.3855 6.47761H12.6143C13.1567 6.47761 13.6175 6.80881 13.8095 7.28401H23.4959C23.3807 6.20401 22.8959 5.23441 22.1711 4.50481C21.3359 3.66961 20.1839 3.15601 18.9119 3.15601H5.08791C2.70711 3.15601 0.743906 4.96561 0.503906 7.28401H10.1903C10.2576 7.12081 10.3535 6.97681 10.4735 6.85681ZM11.9993 11.2813C11.5769 11.2813 11.2313 11.6269 11.2313 12.0493C11.2313 12.3277 11.3801 12.5725 11.6057 12.7069V13.7533H12.3929V12.7069C12.6185 12.5725 12.7673 12.3277 12.7673 12.0493C12.7674 11.6269 12.4217 11.2813 11.9993 11.2813Z" fill="white"/>
<path d="M4.57446 9.99597L6.01926 20.844H17.9809L19.4257 9.99597H4.57446ZM14.3971 13.8249C14.3971 14.0027 14.253 14.1468 14.0752 14.1468H9.92382C9.74603 14.1468 9.60194 14.0027 9.60194 13.8249V11.2095C9.60194 11.0317 9.74603 10.8876 9.92382 10.8876H14.0752C14.253 10.8876 14.3971 11.0317 14.3971 11.2095V13.8249Z" fill="white"/>
</svg>
